<mxfile host="Electron" agent="Mozilla/5.0 (Macintosh; Intel Mac OS X 10_15_7) AppleWebKit/537.36 (KHTML, like Gecko) draw.io/26.0.9 Chrome/128.0.6613.186 Electron/32.2.5 Safari/537.36" version="26.0.9">
  <diagram name="Page-1" id="K9IK6g4bxfh7YdT-cAdG">
    <mxGraphModel dx="1114" dy="821" grid="1" gridSize="10" guides="1" tooltips="1" connect="1" arrows="1" fold="1" page="1" pageScale="1" pageWidth="827" pageHeight="1169" math="0" shadow="0">
      <root>
        <mxCell id="0" />
        <mxCell id="1" parent="0" />
        <mxCell id="Cq-MOoLUW9W_QhykzcAv-5" style="edgeStyle=orthogonalEdgeStyle;rounded=0;orthogonalLoop=1;jettySize=auto;html=1;entryX=0;entryY=0.5;entryDx=0;entryDy=0;endArrow=block;endFill=1;" edge="1" parent="1">
          <mxGeometry relative="1" as="geometry">
            <mxPoint x="180" y="128" as="sourcePoint" />
            <mxPoint x="260" y="128" as="targetPoint" />
          </mxGeometry>
        </mxCell>
        <mxCell id="Cq-MOoLUW9W_QhykzcAv-10" value="요청" style="edgeLabel;html=1;align=center;verticalAlign=middle;resizable=0;points=[];" vertex="1" connectable="0" parent="Cq-MOoLUW9W_QhykzcAv-5">
          <mxGeometry x="-0.225" relative="1" as="geometry">
            <mxPoint x="6" y="-10" as="offset" />
          </mxGeometry>
        </mxCell>
        <mxCell id="Cq-MOoLUW9W_QhykzcAv-2" value="바운디드&lt;div&gt;컨텍스트 1&lt;/div&gt;" style="rounded=0;whiteSpace=wrap;html=1;" vertex="1" parent="1">
          <mxGeometry x="80" y="110" width="100" height="50" as="geometry" />
        </mxCell>
        <mxCell id="Cq-MOoLUW9W_QhykzcAv-7" style="edgeStyle=orthogonalEdgeStyle;rounded=0;orthogonalLoop=1;jettySize=auto;html=1;endArrow=block;endFill=1;" edge="1" parent="1">
          <mxGeometry relative="1" as="geometry">
            <mxPoint x="440" y="142" as="sourcePoint" />
            <mxPoint x="360" y="142" as="targetPoint" />
          </mxGeometry>
        </mxCell>
        <mxCell id="Cq-MOoLUW9W_QhykzcAv-12" value="응답" style="edgeLabel;html=1;align=center;verticalAlign=middle;resizable=0;points=[];" vertex="1" connectable="0" parent="Cq-MOoLUW9W_QhykzcAv-7">
          <mxGeometry x="0.325" relative="1" as="geometry">
            <mxPoint x="11" y="8" as="offset" />
          </mxGeometry>
        </mxCell>
        <mxCell id="Cq-MOoLUW9W_QhykzcAv-3" value="바운디드&lt;div&gt;컨텍스트 2&lt;/div&gt;" style="rounded=0;whiteSpace=wrap;html=1;" vertex="1" parent="1">
          <mxGeometry x="440" y="110" width="100" height="50" as="geometry" />
        </mxCell>
        <mxCell id="Cq-MOoLUW9W_QhykzcAv-6" style="edgeStyle=orthogonalEdgeStyle;rounded=0;orthogonalLoop=1;jettySize=auto;html=1;entryX=0;entryY=0.5;entryDx=0;entryDy=0;endArrow=block;endFill=1;" edge="1" parent="1">
          <mxGeometry relative="1" as="geometry">
            <mxPoint x="360" y="128" as="sourcePoint" />
            <mxPoint x="440" y="128" as="targetPoint" />
          </mxGeometry>
        </mxCell>
        <mxCell id="Cq-MOoLUW9W_QhykzcAv-11" value="변환된 요청" style="edgeLabel;html=1;align=center;verticalAlign=middle;resizable=0;points=[];" vertex="1" connectable="0" parent="Cq-MOoLUW9W_QhykzcAv-6">
          <mxGeometry x="-0.375" y="2" relative="1" as="geometry">
            <mxPoint x="12" y="-10" as="offset" />
          </mxGeometry>
        </mxCell>
        <mxCell id="Cq-MOoLUW9W_QhykzcAv-8" style="edgeStyle=orthogonalEdgeStyle;rounded=0;orthogonalLoop=1;jettySize=auto;html=1;endArrow=block;endFill=1;" edge="1" parent="1">
          <mxGeometry relative="1" as="geometry">
            <mxPoint x="260" y="142" as="sourcePoint" />
            <mxPoint x="180" y="142" as="targetPoint" />
          </mxGeometry>
        </mxCell>
        <mxCell id="Cq-MOoLUW9W_QhykzcAv-13" value="변환된 응답" style="edgeLabel;html=1;align=center;verticalAlign=middle;resizable=0;points=[];" vertex="1" connectable="0" parent="Cq-MOoLUW9W_QhykzcAv-8">
          <mxGeometry x="0.2" y="-3" relative="1" as="geometry">
            <mxPoint x="4" y="13" as="offset" />
          </mxGeometry>
        </mxCell>
        <mxCell id="Cq-MOoLUW9W_QhykzcAv-4" value="프록시" style="rounded=0;whiteSpace=wrap;html=1;" vertex="1" parent="1">
          <mxGeometry x="260" y="110" width="100" height="50" as="geometry" />
        </mxCell>
      </root>
    </mxGraphModel>
  </diagram>
</mxfile>
